<mxfile host="Electron" modified="2023-06-03T05:23:11.420Z" agent="Mozilla/5.0 (X11; Linux x86_64) AppleWebKit/537.36 (KHTML, like Gecko) draw.io/21.2.8 Chrome/112.0.5615.165 Electron/24.2.0 Safari/537.36" etag="V3WgyGJBLGkhZFztM2_E" version="21.2.8" type="device">
  <diagram name="Page-1" id="tIw7xABhPeiKwNzD5aFV">
    <mxGraphModel dx="989" dy="601" grid="1" gridSize="10" guides="1" tooltips="1" connect="1" arrows="1" fold="1" page="0" pageScale="1" pageWidth="850" pageHeight="1100" math="0" shadow="0">
      <root>
        <mxCell id="0" />
        <mxCell id="1" parent="0" />
        <mxCell id="R7sODBWqzrvWLA5G68it-1" value="Universe::loop()" style="swimlane;whiteSpace=wrap;html=1;" vertex="1" parent="1">
          <mxGeometry x="260" y="200" width="290" height="420" as="geometry" />
        </mxCell>
        <mxCell id="R7sODBWqzrvWLA5G68it-3" value="Process events" style="swimlane;whiteSpace=wrap;html=1;" vertex="1" parent="R7sODBWqzrvWLA5G68it-1">
          <mxGeometry x="40" y="40" width="210" height="90" as="geometry">
            <mxRectangle x="40" y="40" width="130" height="30" as="alternateBounds" />
          </mxGeometry>
        </mxCell>
        <mxCell id="R7sODBWqzrvWLA5G68it-2" value="Active Components" style="rounded=0;whiteSpace=wrap;html=1;fillColor=#008a00;fontColor=#ffffff;strokeColor=#005700;" vertex="1" parent="R7sODBWqzrvWLA5G68it-3">
          <mxGeometry x="40" y="40" width="130" height="30" as="geometry" />
        </mxCell>
        <mxCell id="R7sODBWqzrvWLA5G68it-5" value="Update" style="swimlane;whiteSpace=wrap;html=1;" vertex="1" parent="R7sODBWqzrvWLA5G68it-1">
          <mxGeometry x="40" y="150" width="210" height="90" as="geometry" />
        </mxCell>
        <mxCell id="R7sODBWqzrvWLA5G68it-6" value="Active Components" style="rounded=0;whiteSpace=wrap;html=1;fillColor=#008a00;fontColor=#ffffff;strokeColor=#005700;" vertex="1" parent="R7sODBWqzrvWLA5G68it-5">
          <mxGeometry x="40" y="40" width="130" height="30" as="geometry" />
        </mxCell>
        <mxCell id="R7sODBWqzrvWLA5G68it-7" value="Draw" style="swimlane;whiteSpace=wrap;html=1;" vertex="1" parent="R7sODBWqzrvWLA5G68it-1">
          <mxGeometry x="40" y="260" width="210" height="140" as="geometry" />
        </mxCell>
        <mxCell id="R7sODBWqzrvWLA5G68it-8" value="Active Components" style="rounded=0;whiteSpace=wrap;html=1;fillColor=#008a00;fontColor=#ffffff;strokeColor=#005700;" vertex="1" parent="R7sODBWqzrvWLA5G68it-7">
          <mxGeometry x="40" y="40" width="130" height="30" as="geometry" />
        </mxCell>
        <mxCell id="R7sODBWqzrvWLA5G68it-9" value="Paused Components" style="rounded=0;whiteSpace=wrap;html=1;fillColor=#f0a30a;fontColor=#000000;strokeColor=#BD7000;" vertex="1" parent="R7sODBWqzrvWLA5G68it-7">
          <mxGeometry x="40" y="90" width="130" height="30" as="geometry" />
        </mxCell>
        <mxCell id="R7sODBWqzrvWLA5G68it-14" value="Out of loop" style="swimlane;whiteSpace=wrap;html=1;" vertex="1" parent="1">
          <mxGeometry x="570" y="365" width="210" height="90" as="geometry" />
        </mxCell>
        <mxCell id="R7sODBWqzrvWLA5G68it-15" value="Hidden Components" style="rounded=0;whiteSpace=wrap;html=1;fillColor=#a20025;fontColor=#ffffff;strokeColor=#6F0000;" vertex="1" parent="R7sODBWqzrvWLA5G68it-14">
          <mxGeometry x="40" y="40" width="130" height="30" as="geometry" />
        </mxCell>
        <mxCell id="R7sODBWqzrvWLA5G68it-16" style="edgeStyle=orthogonalEdgeStyle;rounded=0;orthogonalLoop=1;jettySize=auto;html=1;exitX=0.5;exitY=1;exitDx=0;exitDy=0;entryX=0.5;entryY=0;entryDx=0;entryDy=0;" edge="1" parent="1" source="R7sODBWqzrvWLA5G68it-1" target="R7sODBWqzrvWLA5G68it-1">
          <mxGeometry relative="1" as="geometry">
            <Array as="points">
              <mxPoint x="405" y="640" />
              <mxPoint x="240" y="640" />
              <mxPoint x="240" y="180" />
              <mxPoint x="405" y="180" />
            </Array>
          </mxGeometry>
        </mxCell>
      </root>
    </mxGraphModel>
  </diagram>
</mxfile>
